<?xml version="1.0" encoding="utf-8"?>
<!-- Generator: Adobe Illustrator 23.0.2, SVG Export Plug-In . SVG Version: 6.00 Build 0)  -->
<svg version="1.1" id="Capa_1" xmlns="http://www.w3.org/2000/svg" xmlns:xlink="http://www.w3.org/1999/xlink" x="0px" y="0px"
	 viewBox="0 0 268.83 268.83" style="enable-background:new 0 0 268.83 268.83;" xml:space="preserve">
<style type="text/css">
	.st0{fill:#FFFFFF;}
</style>
<g>
	<path class="st0" d="M143.26,265.17l80-80c4.88-4.88,4.88-12.8,0-17.68c-4.88-4.88-12.8-4.88-17.68,0l-58.66,58.66V12.5
		c0-6.9-5.6-12.5-12.5-12.5c-6.9,0-12.5,5.6-12.5,12.5v213.65l-58.66-58.66c-4.88-4.88-12.8-4.88-17.68,0
		c-2.44,2.44-3.66,5.64-3.66,8.84s1.22,6.4,3.66,8.84l80,80C130.46,270.05,138.37,270.05,143.26,265.17z"/>
</g>
</svg>
