<svg height="15px" viewBox="0 0 512 512.00127" width="15px" xmlns="http://www.w3.org/2000/svg"><g fill="#e8afe5"><path d="m260.261719 244.46875-52.210938 17.6875-52.476562 52.476562 31.492187 18.539063 52.097656-18.539063 52.472657-52.476562zm0 0"/><path d="m166.433594 346.855469-63.332032 20.25-52.46875 52.46875 21.539063 21.542969 62.050781-21.542969 52.464844-52.46875zm0 0"/><path d="m72.171875 441.117188-71.441406 30.933593c-1.722657 5.503907-.398438 11.757813 3.964843 16.121094l19.136719 19.136719c6.253907 6.253906 16.398438 6.257812 22.648438.007812l35.265625-35.265625zm0 0"/></g><path d="m260.261719 244.46875-10.925781 3.699219 9.390624 2.921875c1.042969.324218 1.859376 1.140625 2.183594 2.183594l9.394532 30.21875 21.332031-21.335938zm0 0" fill="#e894e4"/><path d="m324.539062 229.253906-32.902343 32.902344h-83.585938l74.695313-74.695312zm0 0" fill="#6ee4ff"/><path d="m239.164062 314.632812-52.476562 52.472657h-83.585938l52.472657-52.472657zm0 0" fill="#6ee4ff"/><path d="m134.222656 419.574219-52.476562 52.476562h-81.015625c.742187-2.386719 2.066406-4.640625 3.957031-6.53125l45.945312-45.945312zm0 0" fill="#6ee4ff"/><path d="m324.539062 229.253906-41.792968-41.792968-54.234375 54.234374 30.214843 9.394532c1.046876.324218 1.859376 1.140625 2.1875 2.183594l2.761719 8.882812h27.960938zm0 0" fill="#61caff"/><path d="m505.140625 192.449219-31.226563-41.84375c-6.734374-9.027344-8.597656-20.792969-4.980468-31.460938l16.765625-49.441406c9.109375-26.863281-16.539063-52.511719-43.402344-43.402344l-49.441406 16.765625c-10.667969 3.617188-22.433594 1.757813-31.460938-4.980468l-41.839843-31.226563c-22.734376-16.964844-55.054688-.496094-54.691407 27.867187l.667969 52.203126c.144531 11.261718-5.261719 21.875-14.460938 28.378906l-42.625 30.144531c-23.160156 16.378906-17.484374 52.203125 9.601563 60.625l49.855469 15.496094c10.757812 3.34375 19.179687 11.765625 22.523437 22.523437l15.496094 49.855469c8.421875 27.089844 44.246094 32.761719 60.625 9.601563l30.144531-42.625c6.503906-9.195313 17.117188-14.601563 28.378906-14.460938l52.207032.667969c28.359375.363281 44.828125-31.957031 27.863281-54.6875zm0 0" fill="#ffe176"/><path d="m321.90625 102.859375c-1.976562 0-3.957031-.753906-5.464844-2.261719-3.015625-3.019531-3.015625-7.910156 0-10.925781l8.59375-8.59375c3.015625-3.019531 7.910156-3.019531 10.925782 0 3.015624 3.015625 3.015624 7.90625 0 10.925781l-8.59375 8.59375c-1.507813 1.507813-3.484376 2.261719-5.460938 2.261719zm0 0" fill="#4b3f4e"/><path d="m416.867188 197.824219c-1.976563 0-3.953126-.753907-5.460938-2.265625-3.019531-3.015625-3.019531-7.910156 0-10.925782l8.59375-8.59375c3.015625-3.019531 7.90625-3.019531 10.925781 0 3.015625 3.015626 3.015625 7.910157 0 10.925782l-8.59375 8.59375c-1.511719 1.511718-3.488281 2.265625-5.464843 2.265625zm0 0" fill="#4b3f4e"/><path d="m380.320312 161.507812c-7.746093 0-15.304687-3.164062-20.984374-8.84375-6.144532-6.144531-9.34375-14.484374-8.777344-22.882812.285156-4.257812 3.960937-7.480469 8.226562-7.191406 4.257813.285156 7.476563 3.96875 7.1875 8.226562-.261718 3.949219 1.300782 7.929688 4.289063 10.921875 2.992187 2.992188 6.972656 4.554688 10.925781 4.289063 4.25-.289063 7.9375 2.933594 8.222656 7.191406.289063 4.257812-2.933594 7.941406-7.1875 8.226562-.636718.042969-1.273437.0625-1.902344.0625zm0 0" fill="#4b3f4e"/></svg>