<?xml version="1.0" encoding="utf-8"?>
<!-- Generator: Adobe Illustrator 23.0.1, SVG Export Plug-In . SVG Version: 6.00 Build 0)  -->
<svg version="1.1" xmlns="http://www.w3.org/2000/svg" xmlns:xlink="http://www.w3.org/1999/xlink" x="0px" y="0px"
	 viewBox="0 0 208.19 179.41" style="enable-background:new 0 0 208.19 179.41;" xml:space="preserve">
<style type="text/css">
	.st0{fill:#FFFFFF;}
	.st1{fill:none;stroke:#36A9E1;stroke-miterlimit:10;}
	.st2{fill:none;stroke:#F39200;stroke-miterlimit:10;}
</style>
<g id="Calque_1">
	<g>
		<path class="st0" d="M87.16,73.25c0.42,0.48,1.02,1.08,1.74,1.26c0.3,0.18,0.78,0.12,1.08,0.3c0.72,0.6,1.14,1.92,1.5,2.82
			c0.84,1.98,0.3,7.38-1.5,5.22c-0.96-1.2-1.08-3.3-1.86-4.86c-0.96-2.04-2.04-3.84-3.6-5.16c-0.9-0.84-2.94-2.1-5.1-1.32
			c-6.24,2.58-3.6,13.14-0.9,16.68c0.36,0.42,2.46,0.54,3.18,0.6c2.16,0.24,2.16,1.74,1.02,2.4c-1.2,0.66-3.96-0.36-5.4-0.66
			c-6,0.12-18.06,4.62-18.24,11.82c-0.06,3.24,2.22,5.88,8.94,5.88c6.48,0,15.36-2.52,19.26-4.5c3.24-1.68,10.5-7.08,9.6-10.8
			c-0.06-0.3,0.54-0.3,0.72-0.12c3.18,4.62-3.42,10.02-7.14,12.12c-4.98,2.82-14.76,4.8-20.34,4.8c-6.66,0-13.62-1.92-13.62-9.18
			c0-10.02,13.68-11.64,20.22-11.94c-3.3-3.78-6.3-10.98-3.66-15.48c1.5-2.58,6.54-3.84,9.12-3.24
			C84.28,70.43,85.78,71.99,87.16,73.25z"/>
		<path class="st0" d="M105.7,105.94c-0.78,0-1.98,0-1.98-0.96c0-0.3,1.62-1.8,1.92-2.04c2.04-1.5,1.74-0.3,1.74,0.66
			C107.38,104.14,106.24,105.94,105.7,105.94z"/>
		<path class="st0" d="M147.58,83.63c-0.78-0.84-0.84-5.04,0.48-7.74c0.3-0.54,1.08-1.44,1.44-1.8c-7.8-0.18-15.96-1.74-23.52-0.6
			c-7.2,0.96-13.62,4.14-14.7,9.12c-0.72,2.94,2.4,4.08,3.6,4.98c0.72,0.54,0.18,0.96-0.54,0.72c-2.04-0.6-5.88-3.36-4.56-6.9
			c0-0.06,0-0.66,0.06-0.96c1.26-6,8.52-8.82,16.26-9.36c9.24-0.6,19.68,2.04,24.18,2.1c1.08-1.2,1.86-1.8,2.46-1.86
			c1.5-0.3,3.06,0.72,1.74,2.16c-0.6,0.6-1.92,1.32-3.12,2.52c-2.1,2.1-4.02,5.1-2.58,7.32C149.14,83.81,148.36,84.59,147.58,83.63z
			 M125.26,101.74c0.42,0.3-0.66,1.5-0.72,1.56c-0.96,1.32-2.58,4.2-4.2,4.2c-0.36,0-2.28-0.3-2.34-0.72
			c-0.54-3.84,7.56-17.46,9.3-21c0.78-1.5,0.54-2.1,0.36-2.46c0.42-1.98,4.62-7.14,7.74-7.14c0.78,0,3.78,0.84,3.54,2.7
			c-0.24-0.18-0.54-0.3-0.78-0.3c-5.52,0-14.7,18.06-16.98,23.64c-1.44,3.42,0.6,3.18,1.92,1.56
			C123.94,102.7,124.78,101.68,125.26,101.74z"/>
		<path class="st0" d="M136.72,105.94c-0.78,0-1.98,0-1.98-0.96c0-0.3,1.62-1.8,1.92-2.04c2.04-1.5,1.74-0.3,1.74,0.66
			C138.4,104.14,137.26,105.94,136.72,105.94z"/>
	</g>
</g>
<g id="Calque_2">
</g>
<g id="Calque_3">
	<polygon class="st1" points="104.08,178.7 0.93,75.66 103.91,0.87 207.28,75.65 	"/>
</g>
<g id="Calque_4">
	<polygon class="st2" points="103.92,0.71 0.77,103.74 104.06,178.63 207.42,103.54 	"/>
</g>
</svg>
